<svg xmlns="http://www.w3.org/2000/svg" viewBox="0 0 100 100">
 <path d="m56.574 16.395c-0.19531-1.4023-0.046875-5.7734 1.6133-6.3906 3.0156-0.12891-1.2539 4.1641 1.2539 7.5703 3.5039 4.7617 4.3945 4.418 1.9141 10.555-1.3906 3.4414-2.0156 7.1133-1.4961 10.816 0.84766 6.0469 4.8398 10.688 7.4141 16.016 3.6172 7.4844 5.6484 15.902 6.918 24.094 0.94922 6.1055-0.40234 6.3398-6.3125 6.6602-1.9844 0.10938-1.875 0.4375-3.5742 1.2852-8.6992 4.3359-22.312 3.9375-30.496-0.95703-2.7812-1.5156-9.125 1.8633-8.1875-5.707 1.3438-10.844 4.3203-21.559 9.9688-30.988 0.60938-1.0156 1.2891-1.9922 1.8945-3.0117 3.5508-5.9805 3.7383-11.914 1.1406-18.379-0.48047-1.1953-1.1758-2.332-1.3125-3.6367-0.55078-5.3594 5.6289-5.8281 3.8086-11.57-0.23438-0.73438-1.25-2.7852 0.55078-2.7227 1.707 0.058594 1.8711 5.2578 1.832 6.3633 1.6172 0.53906 5.3477 4.1641 6.5195 5.5039 1.6289-2.0156 4.2227-4.3438 6.5508-5.5zm-13.91 1.9102c-1.3672 1.5625-3.4336 3.4766-3.2734 5.668 0.089844 1.2539 0.84375 2.2852 1.293 3.4258 1.0781 2.75 1.8086 5.7383 1.7852 8.7031 1.1875 0.015626 2.4141-0.10937 3.5234-0.57031-1.2812-1.5938-1.7031-3.2539-1.4922-5.293 0.23047-2.2148 1.5-1.6914 3.0625-1.1094 1.2852 0.47656 2.7383 0.60156 4.0781 0.29297 0.98438-0.22656 2.8359-1.4531 3.6406-0.32031 0.88281 1.2383 0.26953 4.2148-0.57031 5.5273-0.21094 0.28906-0.38281 0.58594-0.55469 0.89844 1.1641 0.12891 2.2383 0.48828 3.4414 0.57031 0.011719-2.9453 0.73047-5.957 1.8164-8.6875 1.8516-4.6523 1.8828-4.9766-2.1055-9.1094-1.9727 1.2773-3.582 2.5469-5.1367 4.3164-0.67578 0.76953-1.0625 1.8555-2.1289 2.0938-1.0195-0.21875-4.5703-5.2617-7.3789-6.4062zm3.7539 12.816c0.16406 1.3008 0.375 2.4609 1.4688 3.3203 1.5547 1.2148 3.7422 0.83594 4.9453-0.67578 0.57812-0.83984 0.73828-1.6328 0.76953-2.6445-1.7539 0.40625-3.3789 0.67188-5.1875 0.39844-0.67578-0.097656-1.3125-0.34766-1.9961-0.39844zm1.5312 5.7227c-1.8555 0.9375-3.3984 1.3047-5.4844 1.3047-0.67578 5.1953-2.2383 7.7109-4.8242 11.91-5.2969 8.5938-8.0469 17.852-9.5742 27.82-0.28906 1.8789-1.5977 5.3242 1.0156 5.5977 1.6094 0.16797 3.3672 0.28906 4.9766 0.22656 6.2539-5.9648 8.3398-22.32 8.875-30.363 0.046875-0.73047 0.050781-2.9297 0.28516-3.4297 0.3125-0.66406 1.1914-0.71875 1.668-0.21094 0.78516 0.84375-0.375 9.1172-0.53125 10.406-1.043 8.6758-2.8242 17.793-8.4727 24.73 6.3398 3.2852 10.215 2.6562 16.566 3.0352 3.668-0.55469 6.1445-0.68359 9.7891-2.2148 0.65234-0.27344 1.2539-0.65625 1.9492-0.82031-0.47656-0.70703-1.0508-1.3398-1.5352-2.0469-5.2812-7.7461-7.1016-20.023-7.6016-29.133-0.078125-1.3984-0.79297-3.8984 0.88672-4.293 1.3828 0.41797 1.0078 1.668 1.0469 2.8047 0.29297 8.5117 2.0391 19.434 5.8398 26.926 0.85156 1.6758 1.8594 3.4609 3.3906 4.6094 1.0312 0.058594 2.0898-0.042969 3.1211-0.097656 4.332-0.22656 3.2695-1.4453 2.6602-5.2148-1.5-9.2266-3.9688-18.348-8.6914-26.469-2.6641-4.582-5.0938-8.1641-5.6016-13.773-1.8945 0.13281-3.8008-0.55469-5.5117-1.3047-1.3828 0.33203-2.8789 0.62891-4.2422 0z"/>
</svg>
