<svg xmlns="http://www.w3.org/2000/svg" viewBox="0 0 100 100">
 <path d="m81.672 70.523-61.957 0.003906c-0.73828 0.003906-1.5859 0.10156-2.3008-0.10547-1.7578-0.51172-1.3281-3.8672-4.7617-5.0977-1.2344-0.44141-2.5195-0.55859-2.5664-2.1875-0.035157-1.1641-0.15625-4.4883 0.035156-5.5352 0.33203-1.8047 1.9727-1.4414 3.2578-1.875 5.5352-1.8633 5.2969-9.9766-0.30469-11.586-0.82422-0.23828-1.7734-0.089844-2.4375-0.73828-0.71094-0.69531-0.88281-6.8594-0.19141-7.7773 1.0859-1.4336 3.9258-0.47266 5.2852-3.668 0.67969-1.5938 0.59766-2.4531 2.6367-2.4688h59.957c0.86328 0 3.793-0.12891 4.4023 0.070313 1.6133 0.52734 1.0859 3.8945 4.5234 5.082 3.2461 1.1211 2.6719 0.90625 2.6914 4.6445 0.019532 3.957 0.57422 3.8633-3.2891 5.0352-5.1094 1.5469-5.3008 9.9219-0.007813 11.469 0.88281 0.25781 1.8555 0.12891 2.5859 0.80469 1.0703 0.98828 0.70312 2.6445 0.70703 3.9414 0.011719 2.1992 0.61328 3.9414-2.0586 4.6836-4.793 1.3281-2.7656 5.2773-6.207 5.3047zm-63.699-39.066c-1.0352 3.7227-2.8359 4.3281-5.9297 5.4531v5.0703c9.332 0.65234 10.086 14.961 0 16v5.1797c3.0078 0.27344 5.0391 2.6602 5.9297 5.3516h53.949c-0.003906-0.6875-0.11719-2.2305 0.019531-2.8398 0.16016-0.73828 1.0859-1.1602 1.6484-0.53125 0.48828 0.54688 0.30469 2.6133 0.29688 3.3711h8.168c1.0312-3.0977 2.7188-4.8086 5.9062-5.3516 0-1.7227 0.03125-3.4531 0-5.1797-6.7578 0.035156-9.6016-9.0859-4.9102-13.734 1.5586-1.543 2.8516-1.8359 4.9102-2.2617v-5.0703c-2.7656-0.61719-5.3398-2.5625-5.9062-5.4531h-8.168c-0.019531 0.83203 0.22656 2.9844-0.34375 3.5391-0.35938 0.35156-1.0391 0.32031-1.3594-0.070312-0.46875-0.56641-0.25-2.6875-0.26562-3.4727zm49.016 7.2617h-8.3398c-0.98438 0-4.2461 0.27344-5.0039-0.20703-0.89844-0.57031-0.51172-1.6953 0.77734-1.8477l8.6641 0.003907c1.2734 0.003906 2.6016-0.097657 3.8711 0 1.5508 0.11719 1.4414 1.9414 0.03125 2.0508zm6.1094 2.2344c-1.5273 0.27344-1.7305-3.2656-0.49609-3.8438 2.0234-0.22656 1.6836 3.3281 0.49609 3.8438zm-35.301 3.6602c0.32031-0.82422 0.78516-1.6172 1.1641-2.418l1.418-2.9102c0.39844-0.80078 0.55078-1.582 1.5195-1.7773 1.0352 0.003907 1.6055 1.8047 2.0039 2.5625 0.79297 1.5117 1.5586 3.0391 2.3672 4.543 1.9531 0.39062 3.9844 0.52734 5.957 0.83203 0.87891 0.13672 3.5664 0.34375 2.2617 2.0273-1.0352 1.332-4.1953 3.9648-5.543 5.1719 0.42578 2.4922 1.4531 5.6836 1.6328 8.0859 0.050781 0.67969-0.58984 1.2031-1.2578 1.0039-1.6602-0.49219-5.332-2.8828-7.1523-3.7578-0.44922-0.17187-1.2305 0.46094-1.6211 0.66406l-3.6445 1.9336c-0.80078 0.42969-2.5898 1.8477-3.3359 0.74609-0.40625-0.59766 1.2539-7.2227 1.4648-8.2617-1.6992-1.7578-4.0156-3.6992-5.543-5.4844-1.5625-1.8203 1.7422-1.9375 2.6016-2.0742zm4.1055-3.9453-1.7031 3.4492c-1.4492 2.9297-1.0039 2.3164-4.3633 2.8203-1.1992 0.17969-2.3945 0.41016-3.5977 0.55078 0.99609 1.1172 4.918 4.1523 4.8438 5.3281-0.10156 1.6484-0.89844 4.3633-1.2344 6.0742 0.8125-0.48828 5.6797-3.1836 6.3125-3.2422 2.0391 1.0117 3.8242 2.2852 6.0078 3.2422-0.33203-1.8672-1.1992-5.0586-1.2656-6.8242 0.45703-0.71484 4.0508-4.0547 4.8359-4.5781-2.0469-0.75-5.0508-0.44141-6.7148-1.1562-1.0039-1.1562-2.2148-4.9023-3.1211-5.6641zm31.195 5.8594c-1.8125 0.23438-1.6016-3.25-0.35156-3.6836 0.42969-0.019531 0.87891 0.089844 1.0586 0.53125 0.30469 0.75781 0.44141 2.7344-0.70703 3.1523zm-1.1758 4.8047c-0.039063-1.1328-0.39844-2.3672 0.82422-2.8945 0.50391-0.039062 0.79297 0.16797 1.1445 0.51562 0.082031 1.0703 0.375 2.4258-0.79297 2.9141-0.50781 0.011718-0.81641-0.21094-1.1758-0.53516zm0 5.5391c0.019531-0.96484-0.39453-2.8203 0.82422-3.1836 1.7148-0.070312 1.5859 3.3047 0.35156 3.7812-0.51953 0-0.84375-0.20312-1.1758-0.59766zm1.1758 6.2852c-1.7656-0.11328-1.668-3.5469-0.35156-3.8789 1.6133-0.042969 1.6562 3.0859 0.35156 3.8789zm-5.668 0c-0.57031 0.03125-1.1484 0.003906-1.7188 0h-8.2266c-0.77734 0-2.918 0.11719-3.5664-0.10547-0.99609-0.33984-0.625-1.5547 0.16406-1.8828h8.1992c1.1875 0 4.3867-0.24609 5.3711 0.15625 0.89062 0.36328 0.55078 1.5625-0.22266 1.832z"/>
</svg>
