<svg xmlns="http://www.w3.org/2000/svg" viewBox="0 0 100 100">
 <path d="m49.004 28.23-0.003906-15.707c-0.003906-1.0117-0.32031-1.9297 0.66797-2.5039 1.7344-0.25391 1.3281 1.8281 1.3281 2.9023v15.309c3.418 0.12109 4.2031-0.97266 4.1758 2.3086v2.6367c13.039 2.3984 23.242 13.844 23.508 27.234 0.31641 15.988-12.137 29.305-28.211 29.566-1.0391 0.058594-2.0977-0.023437-3.1328-0.11719-14.059-1.3086-25.141-12.945-26.031-27.016-0.82813-13.152 7.6328-24.66 19.934-28.773 1.1836-0.39453 2.4922-0.82031 3.7383-0.89844l-0.027343-3.832c0.003906-1.7461 2.6836-1.1133 4.0547-1.1094zm11.824 8.6406c2.7266 2.6875 5.0156 7.3359 5.9609 11.031 2 0.25 6.0898 2.082 7.8438 3.1836-1.3281-5.125-8.6836-12.207-13.805-14.215zm-22.031 0.33594c-0.95703 0.30078-1.9453 0.94531-2.793 1.4688-4.2539 2.6289-8.9961 7.5352-10.605 12.406 2.4297-1.4805 5.1133-2.4492 7.8516-3.1836 1.0938-3.9688 2.8008-7.6133 5.5469-10.691zm8.1719-6.8945v2.2969c1.9492 0.066406 4.1719-0.03125 6.207 0l0.070313-0.058594c-0.066406-0.75-0.074219-1.4883-0.070313-2.2422zm3.0781 4.1992c-2.1719 0.13281-3.9727 9.168-4.1641 11.07 1.3594 0.13281 2.7969-0.003906 4.1641 0 1.418 0 2.8789 0.11719 4.2891 0-0.875-2.1719-1.9688-11.156-4.2891-11.07zm3.1289 0.20312c0.23047 0.93359 0.77734 1.8242 1.082 2.7461 0.89063 2.6914 1.5703 5.582 1.8398 8.4062 2.3672-0.007813 6.1055 0.69531 8.4336 1.3047-1.4883-5.1367-5.5977-11.535-11.355-12.457zm-6.207 0c-5.9062 1.1797-9.0859 6.1914-11.055 11.391-0.10937 0.29297-0.37891 0.73438-0.30859 1.0508l0.074219 0.015625c2.6719-0.52344 5.4023-1.0859 8.1172-1.3047 0.48438-2.9805 1.0898-5.9531 2.1719-8.7812 0.19531-0.50391 1.0312-2.3594 1.0234-2.3711zm1.7773 12.801c-1.1055 0.074219-2.207 0.125-3.3125 0.14844-0.35938 3.7734-1.0039 8.8984-0.78125 12.68h10.664c0.011719-4.3125-0.5-8.543-0.8125-12.828-1.6992 0.17188-3.957-0.058594-5.7578 0zm7.6602 0.14844c0.48438 4.2188 0.82812 8.4297 0.80859 12.68h9.3711c0.09375-2.7891-0.38672-8.3594-1.3438-10.895-1.9922-0.85938-6.3945-1.5234-8.8359-1.7852zm-13.164 0.23828c-2.1055 0.24609-6.5039 0.83203-8.3477 1.5508-0.72266 2.0391-1.7031 8.4336-1.4844 10.816l0.0625 0.074219 0.078125 0.003906h9.1523c0.054687-3.1484 0.14453-6.3008 0.41016-9.4375 0.042969-0.50391 0.37891-2.6641 0.21875-2.9922zm24.254 2.3359c0.80469 3.3047 1.0508 6.7148 1.043 10.105h8.1055c0.066407-1.8984-0.38672-4.4297-0.91406-6.2578-1.8555-1.2461-6-3.75-8.2344-3.8477zm-35.121 0c-2.1445 0.67188-6.2617 2.2383-7.8047 3.6406-0.88281 0.80078-1.2539 5.1602-1.2695 6.3672l0.050781 0.085937 0.14453 0.011719h7.9375c0.035156-2.8789 0.32422-5.7422 0.84375-8.5742 0.042968-0.23047 0.44141-1.5586 0.097656-1.5312zm-2.6094 12.07c-2.1523 0-4.3086 0.03125-6.457 0-0.003906 1.832 0.49609 5.0664 1.1719 6.7578 1.0391 0.86719 2.3867 1.5156 3.6133 2.0742 1.4805 0.68359 3.0352 1.2539 4.582 1.7617-0.72266-3.5312-1.2578-6.9688-1.2383-10.594-0.55859 0-1.1172 0.011718-1.6719 0zm3.7852 0-0.1875 0.03125c-0.24609 0.49219 0.71484 7.4219 0.87109 8.2617 0.18359 1 0.53906 2.0078 0.66406 3.0117 2.793 0.58203 5.7617 1.2734 8.625 1.3125l0.18359 0.015625c0.039063-0.082031-0.29688-2.5312-0.33984-2.9102-0.35156-3.2031-0.70703-6.4961-0.57813-9.7227zm11.211 0c-0.48438 0.48828 0.62891 11.395 1.1211 12.832 2.8242 0.33594 5.6406-0.042969 8.4531 0.12891l0.16797-0.80859c0.43359-4.0703 0.82031-8.0586 0.8125-12.148zm13.805 0c-0.44922 0.003906-0.89844 0.011718-1.3516 0 0.007812 3.5781-0.19141 7.1055-0.62109 10.656-0.078125 0.64453-0.19531 1.3125-0.1875 1.9648 1.9336 0.12109 5.0586-0.51172 6.9883-0.95313 0.54688-0.13281 1.0938-0.26562 1.6484-0.35937 0.73047-3.7188 1.7969-7.4727 1.543-11.305zm9.9727 0c0.023438 3.5586-0.61328 7.1211-1.3242 10.594 1.9531-0.59375 3.9102-1.3945 5.7109-2.3594 0.90234-0.51953 1.7695-1.1055 2.625-1.6953 0.67578-1.6758 1.1133-4.7344 1.0938-6.543zm5.8086 9.8125c-1.4883 0.65234-2.9297 1.3555-4.4531 1.9414-1.0898 0.41797-2.2656 0.67578-3.3047 1.2031-1.6523 4.1211-2.4141 6.5664-5.3945 10.305l0.027344 0.066407c5.9492-2.8633 10.359-7.4766 13.168-13.434-0.03125-0.078125-0.007813-0.058594-0.042969-0.082031zm-48.762 0c2.2656 4.875 5.8438 8.9531 10.398 11.816 0.87109 0.54688 1.8047 1.2461 2.8125 1.5078-2.2148-2.4922-4.7109-6.918-5.3789-10.305-3.293-0.74609-5.0156-1.8828-7.832-3.0195zm10.098 3.7305c0.99219 3.7773 4.1523 8.7539 7.4688 10.672 1.2422 0.71875 2.6172 1.0898 4.0078 1.3945-1.7148-3.4297-2.6523-7.2227-3.0898-11.023-2.7852 0.17969-5.6367-0.74609-8.3867-1.043zm28.41 0c-2.8086 0.60547-5.3281 0.74219-7.9922 1.2188-0.76562 2.5273-1.0391 5.1172-1.9219 7.8203-0.20313 0.62109-1.2891 2.6523-1.2617 2.9883l0.078125 0.039063c5.9727-1.1367 9.0156-5.875 10.957-11.188 0.089844-0.25 0.31641-0.60547 0.26172-0.875zm-18.031 1.375c0.36328 2.2852 1.6055 9.0781 3.5117 10.484 0.90625 0.66797 1.9297-1.4102 2.2461-2.0742 0.99609-2.7695 1.6328-5.5117 2.1641-8.4102-0.94531-0.054687-1.8984-0.003906-2.8438 0zm32.094-51.98c-0.003906-1.4375-0.58984-4.8789 0.74609-5.4805l0.082031-0.003906c1.5117-0.050781 1.1719 1.4922 1.1719 2.5352l-0.007812 2.9453c1.2969 1.0703 2.3594 2.4414 3.6133 3.5742l2.4727-0.007812c0.75-0.003906 2.5078-0.21094 2.5195 0.94922 0.019532 1.6797-3.7383 1.0469-4.9922 1.0391-0.90625 0.61719-2.8984 2.6523-3.6133 3.5273 0.003906 1.8516 0.77734 5.1289-1.0234 5.6641-1.25-0.042969-0.97656-1.793-0.97656-2.6211l0.007812-3.043c-1.1328-0.99219-2.4766-2.418-3.5195-3.5273l-2.7109 0.003906c-0.94141 0-2.4766 0.26953-2.5352-1.082-0.050781-1.1094 1.8398-0.91406 2.5195-0.91406l2.7266 0.007812c0.50391-0.73438 2.7891-3.0195 3.5195-3.5664zm0.96875 1.6719c-0.88281 0.99609-1.9062 1.875-2.7617 2.8906 0.35156 0.375 2.5156 2.6562 2.7617 2.6992 0.89844-0.91406 1.7773-1.8828 2.7656-2.6992-0.33594-0.41406-2.4375-2.75-2.7656-2.8906zm-51.734 7.9453c-1.8555 0.40625-2.4453-2.0039-0.71094-2.7773 1.9062-0.21875 2.4297 2.125 0.71094 2.7773zm-9.5391 13.832c-2.707 1.1562-0.19922-4.2578-4.5742-5.2812-0.76562-0.17969-2.4531-0.30469-1.9297-1.5547 0.39062-0.93359 1.7227-0.51562 2.5078-0.84375 3.3867-1.4102 1.6289-4.4727 3.2344-5.1211 1.5508-0.078125 1.1797 1.5117 1.4336 2.5508 0.94922 3.8711 5.5312 1.8516 5.2383 3.9375-0.14453 1.0273-1.6602 0.87109-2.4062 1.0234-3.8594 0.79688-2.2539 4.3164-3.5039 5.2891zm-0.46875-7.9102c-0.52344 0.62891-1.0117 1.0898-1.7109 1.5273 0.67578 0.42969 1.4102 1.4102 1.6484 1.543l0.0625-0.066407c0.44531-0.71484 0.89063-1.125 1.6562-1.4766-0.94141-0.57422-1.3203-1.3008-1.6562-1.5273z"/>
</svg>
