<svg width="192" height="24" viewBox="0 0 192 24" fill="none" xmlns="http://www.w3.org/2000/svg">
<g clip-path="url(#clip0_2369_1103)">
<path d="M181.23 13.9885L191.445 0.119205V23.4106H187.993V10.8966L181.23 19.8964L174.471 10.8966V23.4106H171.004V0.119205L181.23 13.9885ZM101.849 17.3664C101.787 16.1746 101.225 13.7978 98.12 11.2916L95.3958 8.90795C94.2483 7.99196 93.6932 6.98743 93.6694 5.8433C93.6356 5.23746 93.8532 4.64452 94.2709 4.20433C94.6885 3.76414 95.2692 3.51569 95.876 3.51756C96.9331 3.4291 97.9617 3.88939 98.6001 4.73662L98.6409 4.7945L101.413 2.93869L101.379 2.8808C100.916 2.11804 98.7499 0.0783432 95.8521 0.238386C94.3074 0.276596 92.8348 0.899713 91.7319 1.98183C90.6651 3.0977 90.1218 4.61373 90.237 6.15317C90.3357 8.10773 91.4663 9.89885 93.7954 11.8194L96.3493 14.0804C97.7658 15.245 98.3924 16.2291 98.4741 17.38C98.5351 18.2184 98.2552 19.0459 97.6977 19.6751C97.254 20.196 96.6078 20.5011 95.9236 20.5128H95.7568C93.6013 20.5128 92.733 18.9838 92.212 18.0679L92.0792 17.8363L89.1303 19.2665C90.1235 22.0311 92.7722 23.8517 95.7091 23.7885H95.7908C97.4485 23.7265 99.0209 23.0377 100.19 21.8612C101.348 20.6611 101.949 19.0307 101.849 17.3664ZM33.6839 2.42859e-05C27.0566 2.42859e-05 21.6841 5.37253 21.6841 11.9998C21.6841 18.6272 27.0566 23.9997 33.6839 23.9997C40.3113 23.9997 45.6838 18.6272 45.6838 11.9998C45.6762 5.37564 40.3081 0.00753047 33.6839 2.42859e-05ZM33.6839 20.523C28.9824 20.523 25.171 16.7116 25.171 12.0101C25.171 7.3085 28.9824 3.49713 33.6839 3.49713C38.3855 3.49713 42.1969 7.3085 42.1969 12.0101C42.1856 16.707 38.3808 20.5117 33.6839 20.523ZM154.53 1.21215e-05C149.675 -0.00686422 145.294 2.91243 143.431 7.3959C141.569 11.8794 142.591 17.0435 146.022 20.479C149.452 23.9144 154.615 24.9442 159.101 23.0878C163.587 21.2315 166.513 16.8549 166.513 11.9998C166.505 5.38227 161.148 0.0169016 154.53 1.21215e-05ZM154.53 20.523C149.828 20.523 146.017 16.7116 146.017 12.0101C146.017 7.3085 149.828 3.49713 154.53 3.49713C159.232 3.49713 163.043 7.3085 163.043 12.0101C163.032 16.707 159.227 20.5117 154.53 20.523ZM17.1382 23.9894V0.595929H13.6615V15.1224L0 0.119205V23.4106H3.46646V9.10885L3.59245 9.24165L17.1382 23.9894ZM119.392 0.595929H104.811V3.78317H110.304V23.4106H113.903V3.78317H119.395L119.392 0.595929ZM134.613 14.8227L134.688 14.7887C135.063 14.6107 135.42 14.3975 135.754 14.1519C137.664 12.6896 138.771 10.411 138.74 8.00558C138.74 3.91937 135.713 0.599334 131.988 0.599334H123.948V23.414H127.421V15.4084H130.827L130.847 15.4391L136.122 23.4106H140.293L134.613 14.8227ZM131.606 11.9181H127.435V3.98407H131.606C133.605 3.98407 135.23 5.76157 135.23 7.94769C135.23 10.1338 133.602 11.9181 131.606 11.9181ZM76.5107 0.595929H70.8752V23.4106H76.5107C82.0373 23.4106 86.3857 18.3028 86.3857 12.0032C86.3857 5.70368 81.9999 0.595929 76.5107 0.595929ZM76.4086 20.1348H74.311V3.8717H76.4086C80.1543 3.8717 82.9704 7.51864 82.9704 12.0032C82.9704 16.4879 80.1441 20.1348 76.4086 20.1348ZM60.8572 14.8227L60.9321 14.7887C61.3068 14.6107 61.6637 14.3975 61.9979 14.1519C63.908 12.6896 65.0152 10.411 64.9843 8.00558C64.9843 3.91937 61.9571 0.599334 58.2318 0.599334H50.2058V23.414H53.6791V15.4084H57.0843L57.1047 15.4391L62.3793 23.4106H66.5302L60.8572 14.8227ZM57.847 11.9181H53.6791V3.98407H57.8504C59.8493 3.98407 61.4735 5.76157 61.4735 7.94769C61.4735 10.1338 59.8459 11.9181 57.847 11.9181Z" fill="black"/>
</g>
<defs>
<clipPath id="clip0_2369_1103">
<rect width="192" height="24" fill="white"/>
</clipPath>
</defs>
</svg>
